<mxfile host="app.diagrams.net" modified="2022-05-09T11:09:11.219Z" agent="5.0 (Windows NT 10.0; Win64; x64) AppleWebKit/537.36 (KHTML, like Gecko) Chrome/101.0.4951.54 Safari/537.36" etag="SyFdqU38Sa3irzTRRbh2" version="17.5.0" type="github">
  <diagram id="NNabqFRwd0IY52160s5P" name="第 1 页">
    <mxGraphModel dx="1185" dy="581" grid="0" gridSize="10" guides="1" tooltips="1" connect="1" arrows="1" fold="1" page="1" pageScale="1" pageWidth="1169" pageHeight="827" background="#ffffff" math="0" shadow="0">
      <root>
        <mxCell id="0" />
        <mxCell id="1" parent="0" />
        <mxCell id="HijH_lwXH3qpXOdbG3rt-124" style="edgeStyle=orthogonalEdgeStyle;rounded=0;orthogonalLoop=1;jettySize=auto;html=1;entryX=0;entryY=0.75;entryDx=0;entryDy=0;fontSize=20;" edge="1" parent="1" source="HijH_lwXH3qpXOdbG3rt-122" target="HijH_lwXH3qpXOdbG3rt-121">
          <mxGeometry relative="1" as="geometry">
            <Array as="points">
              <mxPoint x="658" y="624" />
            </Array>
          </mxGeometry>
        </mxCell>
        <mxCell id="HijH_lwXH3qpXOdbG3rt-122" value="" style="rounded=1;whiteSpace=wrap;html=1;fontSize=20;strokeWidth=3;strokeColor=#6666FF;gradientColor=none;perimeterSpacing=3;" vertex="1" parent="1">
          <mxGeometry x="618" y="90" width="73" height="485" as="geometry" />
        </mxCell>
        <mxCell id="HijH_lwXH3qpXOdbG3rt-2" value="&lt;b&gt;&lt;font style=&quot;font-size: 20px&quot;&gt;原始数据&lt;/font&gt;&lt;/b&gt;" style="rounded=0;whiteSpace=wrap;html=1;fillColor=#D6D6D6;strokeColor=#666666;fontColor=#333333;" vertex="1" parent="1">
          <mxGeometry x="141" y="206" width="110" height="74" as="geometry" />
        </mxCell>
        <mxCell id="HijH_lwXH3qpXOdbG3rt-3" value="&lt;b&gt;&lt;font style=&quot;font-size: 20px&quot;&gt;其他分布&lt;br&gt;数据&lt;/font&gt;&lt;/b&gt;" style="rounded=0;whiteSpace=wrap;html=1;fillColor=#D6D6D6;strokeColor=#666666;fontColor=#333333;" vertex="1" parent="1">
          <mxGeometry x="140" y="376" width="110" height="74" as="geometry" />
        </mxCell>
        <mxCell id="HijH_lwXH3qpXOdbG3rt-18" style="rounded=0;orthogonalLoop=1;jettySize=auto;html=1;fontSize=20;entryX=0;entryY=0.5;entryDx=0;entryDy=0;" edge="1" parent="1" source="HijH_lwXH3qpXOdbG3rt-4" target="HijH_lwXH3qpXOdbG3rt-11">
          <mxGeometry relative="1" as="geometry">
            <mxPoint x="483" y="151" as="targetPoint" />
          </mxGeometry>
        </mxCell>
        <mxCell id="HijH_lwXH3qpXOdbG3rt-19" style="edgeStyle=none;rounded=0;orthogonalLoop=1;jettySize=auto;html=1;fontSize=20;entryX=0.022;entryY=0.244;entryDx=0;entryDy=0;entryPerimeter=0;" edge="1" parent="1" source="HijH_lwXH3qpXOdbG3rt-4" target="HijH_lwXH3qpXOdbG3rt-12">
          <mxGeometry relative="1" as="geometry" />
        </mxCell>
        <mxCell id="HijH_lwXH3qpXOdbG3rt-20" style="edgeStyle=none;rounded=0;orthogonalLoop=1;jettySize=auto;html=1;entryX=0;entryY=0.5;entryDx=0;entryDy=0;fontSize=20;" edge="1" parent="1" source="HijH_lwXH3qpXOdbG3rt-4" target="HijH_lwXH3qpXOdbG3rt-13">
          <mxGeometry relative="1" as="geometry" />
        </mxCell>
        <mxCell id="HijH_lwXH3qpXOdbG3rt-21" style="edgeStyle=none;rounded=0;orthogonalLoop=1;jettySize=auto;html=1;fontSize=20;entryX=0;entryY=0;entryDx=0;entryDy=0;" edge="1" parent="1" source="HijH_lwXH3qpXOdbG3rt-4" target="HijH_lwXH3qpXOdbG3rt-14">
          <mxGeometry relative="1" as="geometry">
            <mxPoint x="481" y="375" as="targetPoint" />
          </mxGeometry>
        </mxCell>
        <mxCell id="HijH_lwXH3qpXOdbG3rt-22" style="edgeStyle=none;rounded=0;orthogonalLoop=1;jettySize=auto;html=1;fontSize=20;entryX=0;entryY=0;entryDx=0;entryDy=0;" edge="1" parent="1" source="HijH_lwXH3qpXOdbG3rt-4" target="HijH_lwXH3qpXOdbG3rt-15">
          <mxGeometry relative="1" as="geometry">
            <mxPoint x="480" y="449" as="targetPoint" />
          </mxGeometry>
        </mxCell>
        <mxCell id="HijH_lwXH3qpXOdbG3rt-23" style="edgeStyle=none;rounded=0;orthogonalLoop=1;jettySize=auto;html=1;entryX=0.044;entryY=0.378;entryDx=0;entryDy=0;entryPerimeter=0;fontSize=20;" edge="1" parent="1" source="HijH_lwXH3qpXOdbG3rt-4" target="HijH_lwXH3qpXOdbG3rt-16">
          <mxGeometry relative="1" as="geometry" />
        </mxCell>
        <mxCell id="HijH_lwXH3qpXOdbG3rt-4" value="" style="ellipse;whiteSpace=wrap;html=1;aspect=fixed;fontSize=20;fillColor=#fff2cc;strokeColor=#d6b656;" vertex="1" parent="1">
          <mxGeometry x="380" y="177" width="45" height="45" as="geometry" />
        </mxCell>
        <mxCell id="HijH_lwXH3qpXOdbG3rt-32" style="edgeStyle=none;rounded=0;orthogonalLoop=1;jettySize=auto;html=1;entryX=0;entryY=0.5;entryDx=0;entryDy=0;fontSize=20;" edge="1" parent="1" source="HijH_lwXH3qpXOdbG3rt-8" target="HijH_lwXH3qpXOdbG3rt-11">
          <mxGeometry relative="1" as="geometry" />
        </mxCell>
        <mxCell id="HijH_lwXH3qpXOdbG3rt-33" style="edgeStyle=none;rounded=0;orthogonalLoop=1;jettySize=auto;html=1;entryX=0.03;entryY=0.207;entryDx=0;entryDy=0;entryPerimeter=0;fontSize=20;" edge="1" parent="1" source="HijH_lwXH3qpXOdbG3rt-8" target="HijH_lwXH3qpXOdbG3rt-12">
          <mxGeometry relative="1" as="geometry" />
        </mxCell>
        <mxCell id="HijH_lwXH3qpXOdbG3rt-34" style="edgeStyle=none;rounded=0;orthogonalLoop=1;jettySize=auto;html=1;entryX=0;entryY=0.5;entryDx=0;entryDy=0;fontSize=20;" edge="1" parent="1" source="HijH_lwXH3qpXOdbG3rt-8" target="HijH_lwXH3qpXOdbG3rt-13">
          <mxGeometry relative="1" as="geometry" />
        </mxCell>
        <mxCell id="HijH_lwXH3qpXOdbG3rt-35" style="edgeStyle=none;rounded=0;orthogonalLoop=1;jettySize=auto;html=1;entryX=0;entryY=0;entryDx=0;entryDy=0;fontSize=20;" edge="1" parent="1" source="HijH_lwXH3qpXOdbG3rt-8" target="HijH_lwXH3qpXOdbG3rt-14">
          <mxGeometry relative="1" as="geometry" />
        </mxCell>
        <mxCell id="HijH_lwXH3qpXOdbG3rt-36" style="edgeStyle=none;rounded=0;orthogonalLoop=1;jettySize=auto;html=1;fontSize=20;" edge="1" parent="1" source="HijH_lwXH3qpXOdbG3rt-8" target="HijH_lwXH3qpXOdbG3rt-15">
          <mxGeometry relative="1" as="geometry" />
        </mxCell>
        <mxCell id="HijH_lwXH3qpXOdbG3rt-37" style="edgeStyle=none;rounded=0;orthogonalLoop=1;jettySize=auto;html=1;entryX=0.067;entryY=0.304;entryDx=0;entryDy=0;entryPerimeter=0;fontSize=20;" edge="1" parent="1" source="HijH_lwXH3qpXOdbG3rt-8" target="HijH_lwXH3qpXOdbG3rt-16">
          <mxGeometry relative="1" as="geometry" />
        </mxCell>
        <mxCell id="HijH_lwXH3qpXOdbG3rt-8" value="" style="ellipse;whiteSpace=wrap;html=1;aspect=fixed;fontSize=20;fillColor=#fff2cc;strokeColor=#d6b656;" vertex="1" parent="1">
          <mxGeometry x="380" y="262" width="45" height="45" as="geometry" />
        </mxCell>
        <mxCell id="HijH_lwXH3qpXOdbG3rt-38" style="edgeStyle=none;rounded=0;orthogonalLoop=1;jettySize=auto;html=1;entryX=0;entryY=0.5;entryDx=0;entryDy=0;fontSize=20;" edge="1" parent="1" source="HijH_lwXH3qpXOdbG3rt-9" target="HijH_lwXH3qpXOdbG3rt-11">
          <mxGeometry relative="1" as="geometry" />
        </mxCell>
        <mxCell id="HijH_lwXH3qpXOdbG3rt-39" style="edgeStyle=none;rounded=0;orthogonalLoop=1;jettySize=auto;html=1;entryX=0.03;entryY=0.319;entryDx=0;entryDy=0;entryPerimeter=0;fontSize=20;" edge="1" parent="1" source="HijH_lwXH3qpXOdbG3rt-9" target="HijH_lwXH3qpXOdbG3rt-12">
          <mxGeometry relative="1" as="geometry" />
        </mxCell>
        <mxCell id="HijH_lwXH3qpXOdbG3rt-40" style="edgeStyle=none;rounded=0;orthogonalLoop=1;jettySize=auto;html=1;entryX=0.011;entryY=0.319;entryDx=0;entryDy=0;entryPerimeter=0;fontSize=20;" edge="1" parent="1" source="HijH_lwXH3qpXOdbG3rt-9" target="HijH_lwXH3qpXOdbG3rt-13">
          <mxGeometry relative="1" as="geometry" />
        </mxCell>
        <mxCell id="HijH_lwXH3qpXOdbG3rt-41" style="edgeStyle=none;rounded=0;orthogonalLoop=1;jettySize=auto;html=1;entryX=0;entryY=0;entryDx=0;entryDy=0;fontSize=20;" edge="1" parent="1" source="HijH_lwXH3qpXOdbG3rt-9" target="HijH_lwXH3qpXOdbG3rt-14">
          <mxGeometry relative="1" as="geometry" />
        </mxCell>
        <mxCell id="HijH_lwXH3qpXOdbG3rt-42" style="edgeStyle=none;rounded=0;orthogonalLoop=1;jettySize=auto;html=1;entryX=0.289;entryY=0.07;entryDx=0;entryDy=0;entryPerimeter=0;fontSize=20;" edge="1" parent="1" source="HijH_lwXH3qpXOdbG3rt-9" target="HijH_lwXH3qpXOdbG3rt-15">
          <mxGeometry relative="1" as="geometry" />
        </mxCell>
        <mxCell id="HijH_lwXH3qpXOdbG3rt-43" style="edgeStyle=none;rounded=0;orthogonalLoop=1;jettySize=auto;html=1;entryX=0.048;entryY=0.359;entryDx=0;entryDy=0;entryPerimeter=0;fontSize=20;" edge="1" parent="1" source="HijH_lwXH3qpXOdbG3rt-9" target="HijH_lwXH3qpXOdbG3rt-16">
          <mxGeometry relative="1" as="geometry" />
        </mxCell>
        <mxCell id="HijH_lwXH3qpXOdbG3rt-9" value="" style="ellipse;whiteSpace=wrap;html=1;aspect=fixed;fontSize=20;fillColor=#fff2cc;strokeColor=#d6b656;" vertex="1" parent="1">
          <mxGeometry x="380" y="347" width="45" height="45" as="geometry" />
        </mxCell>
        <mxCell id="HijH_lwXH3qpXOdbG3rt-44" style="edgeStyle=none;rounded=0;orthogonalLoop=1;jettySize=auto;html=1;entryX=-0.026;entryY=0.641;entryDx=0;entryDy=0;entryPerimeter=0;fontSize=20;" edge="1" parent="1" source="HijH_lwXH3qpXOdbG3rt-10" target="HijH_lwXH3qpXOdbG3rt-11">
          <mxGeometry relative="1" as="geometry" />
        </mxCell>
        <mxCell id="HijH_lwXH3qpXOdbG3rt-45" style="edgeStyle=none;rounded=0;orthogonalLoop=1;jettySize=auto;html=1;entryX=0.048;entryY=0.337;entryDx=0;entryDy=0;entryPerimeter=0;fontSize=20;" edge="1" parent="1" source="HijH_lwXH3qpXOdbG3rt-10" target="HijH_lwXH3qpXOdbG3rt-12">
          <mxGeometry relative="1" as="geometry" />
        </mxCell>
        <mxCell id="HijH_lwXH3qpXOdbG3rt-46" style="edgeStyle=none;rounded=0;orthogonalLoop=1;jettySize=auto;html=1;entryX=0.067;entryY=0.393;entryDx=0;entryDy=0;entryPerimeter=0;fontSize=20;" edge="1" parent="1" source="HijH_lwXH3qpXOdbG3rt-10" target="HijH_lwXH3qpXOdbG3rt-13">
          <mxGeometry relative="1" as="geometry" />
        </mxCell>
        <mxCell id="HijH_lwXH3qpXOdbG3rt-47" style="edgeStyle=none;rounded=0;orthogonalLoop=1;jettySize=auto;html=1;entryX=0.03;entryY=0.3;entryDx=0;entryDy=0;entryPerimeter=0;fontSize=20;" edge="1" parent="1" source="HijH_lwXH3qpXOdbG3rt-10" target="HijH_lwXH3qpXOdbG3rt-14">
          <mxGeometry relative="1" as="geometry" />
        </mxCell>
        <mxCell id="HijH_lwXH3qpXOdbG3rt-48" style="edgeStyle=none;rounded=0;orthogonalLoop=1;jettySize=auto;html=1;entryX=0.289;entryY=0.052;entryDx=0;entryDy=0;entryPerimeter=0;fontSize=20;" edge="1" parent="1" source="HijH_lwXH3qpXOdbG3rt-10" target="HijH_lwXH3qpXOdbG3rt-15">
          <mxGeometry relative="1" as="geometry" />
        </mxCell>
        <mxCell id="HijH_lwXH3qpXOdbG3rt-49" style="edgeStyle=none;rounded=0;orthogonalLoop=1;jettySize=auto;html=1;entryX=0.011;entryY=0.359;entryDx=0;entryDy=0;entryPerimeter=0;fontSize=20;" edge="1" parent="1" source="HijH_lwXH3qpXOdbG3rt-10" target="HijH_lwXH3qpXOdbG3rt-16">
          <mxGeometry relative="1" as="geometry" />
        </mxCell>
        <mxCell id="HijH_lwXH3qpXOdbG3rt-10" value="" style="ellipse;whiteSpace=wrap;html=1;aspect=fixed;fontSize=20;fillColor=#fff2cc;strokeColor=#d6b656;" vertex="1" parent="1">
          <mxGeometry x="380" y="432" width="45" height="45" as="geometry" />
        </mxCell>
        <mxCell id="HijH_lwXH3qpXOdbG3rt-59" style="edgeStyle=none;rounded=0;orthogonalLoop=1;jettySize=auto;html=1;entryX=0;entryY=0.5;entryDx=0;entryDy=0;fontSize=20;" edge="1" parent="1" source="HijH_lwXH3qpXOdbG3rt-11" target="HijH_lwXH3qpXOdbG3rt-50">
          <mxGeometry relative="1" as="geometry" />
        </mxCell>
        <mxCell id="HijH_lwXH3qpXOdbG3rt-60" style="edgeStyle=none;rounded=0;orthogonalLoop=1;jettySize=auto;html=1;entryX=0;entryY=0.5;entryDx=0;entryDy=0;fontSize=20;" edge="1" parent="1" source="HijH_lwXH3qpXOdbG3rt-11" target="HijH_lwXH3qpXOdbG3rt-51">
          <mxGeometry relative="1" as="geometry" />
        </mxCell>
        <mxCell id="HijH_lwXH3qpXOdbG3rt-61" style="edgeStyle=none;rounded=0;orthogonalLoop=1;jettySize=auto;html=1;entryX=0;entryY=0.5;entryDx=0;entryDy=0;fontSize=20;" edge="1" parent="1" source="HijH_lwXH3qpXOdbG3rt-11" target="HijH_lwXH3qpXOdbG3rt-52">
          <mxGeometry relative="1" as="geometry" />
        </mxCell>
        <mxCell id="HijH_lwXH3qpXOdbG3rt-62" style="edgeStyle=none;rounded=0;orthogonalLoop=1;jettySize=auto;html=1;entryX=0;entryY=0.5;entryDx=0;entryDy=0;fontSize=20;" edge="1" parent="1" source="HijH_lwXH3qpXOdbG3rt-11" target="HijH_lwXH3qpXOdbG3rt-53">
          <mxGeometry relative="1" as="geometry" />
        </mxCell>
        <mxCell id="HijH_lwXH3qpXOdbG3rt-63" style="edgeStyle=none;rounded=0;orthogonalLoop=1;jettySize=auto;html=1;entryX=0;entryY=0.5;entryDx=0;entryDy=0;fontSize=20;" edge="1" parent="1" source="HijH_lwXH3qpXOdbG3rt-11" target="HijH_lwXH3qpXOdbG3rt-54">
          <mxGeometry relative="1" as="geometry" />
        </mxCell>
        <mxCell id="HijH_lwXH3qpXOdbG3rt-64" style="edgeStyle=none;rounded=0;orthogonalLoop=1;jettySize=auto;html=1;entryX=0.033;entryY=0.315;entryDx=0;entryDy=0;entryPerimeter=0;fontSize=20;" edge="1" parent="1" source="HijH_lwXH3qpXOdbG3rt-11" target="HijH_lwXH3qpXOdbG3rt-55">
          <mxGeometry relative="1" as="geometry" />
        </mxCell>
        <mxCell id="HijH_lwXH3qpXOdbG3rt-65" style="edgeStyle=none;rounded=0;orthogonalLoop=1;jettySize=auto;html=1;entryX=0;entryY=0.304;entryDx=0;entryDy=0;entryPerimeter=0;fontSize=20;" edge="1" parent="1" source="HijH_lwXH3qpXOdbG3rt-11" target="HijH_lwXH3qpXOdbG3rt-56">
          <mxGeometry relative="1" as="geometry" />
        </mxCell>
        <mxCell id="HijH_lwXH3qpXOdbG3rt-11" value="" style="ellipse;whiteSpace=wrap;html=1;aspect=fixed;fontSize=20;fillColor=#e1d5e7;strokeColor=#9673a6;" vertex="1" parent="1">
          <mxGeometry x="500" y="147" width="45" height="45" as="geometry" />
        </mxCell>
        <mxCell id="HijH_lwXH3qpXOdbG3rt-66" style="edgeStyle=none;rounded=0;orthogonalLoop=1;jettySize=auto;html=1;entryX=0.033;entryY=0.637;entryDx=0;entryDy=0;entryPerimeter=0;fontSize=20;" edge="1" parent="1" source="HijH_lwXH3qpXOdbG3rt-12" target="HijH_lwXH3qpXOdbG3rt-50">
          <mxGeometry relative="1" as="geometry" />
        </mxCell>
        <mxCell id="HijH_lwXH3qpXOdbG3rt-67" style="edgeStyle=none;rounded=0;orthogonalLoop=1;jettySize=auto;html=1;entryX=0;entryY=0.5;entryDx=0;entryDy=0;fontSize=20;" edge="1" parent="1" source="HijH_lwXH3qpXOdbG3rt-12" target="HijH_lwXH3qpXOdbG3rt-51">
          <mxGeometry relative="1" as="geometry" />
        </mxCell>
        <mxCell id="HijH_lwXH3qpXOdbG3rt-68" style="edgeStyle=none;rounded=0;orthogonalLoop=1;jettySize=auto;html=1;entryX=0;entryY=0.5;entryDx=0;entryDy=0;fontSize=20;" edge="1" parent="1" source="HijH_lwXH3qpXOdbG3rt-12" target="HijH_lwXH3qpXOdbG3rt-52">
          <mxGeometry relative="1" as="geometry" />
        </mxCell>
        <mxCell id="HijH_lwXH3qpXOdbG3rt-69" style="edgeStyle=none;rounded=0;orthogonalLoop=1;jettySize=auto;html=1;entryX=0;entryY=0.5;entryDx=0;entryDy=0;fontSize=20;" edge="1" parent="1" source="HijH_lwXH3qpXOdbG3rt-12" target="HijH_lwXH3qpXOdbG3rt-53">
          <mxGeometry relative="1" as="geometry" />
        </mxCell>
        <mxCell id="HijH_lwXH3qpXOdbG3rt-70" style="edgeStyle=none;rounded=0;orthogonalLoop=1;jettySize=auto;html=1;entryX=0;entryY=0.5;entryDx=0;entryDy=0;fontSize=20;" edge="1" parent="1" source="HijH_lwXH3qpXOdbG3rt-12" target="HijH_lwXH3qpXOdbG3rt-54">
          <mxGeometry relative="1" as="geometry" />
        </mxCell>
        <mxCell id="HijH_lwXH3qpXOdbG3rt-71" style="edgeStyle=none;rounded=0;orthogonalLoop=1;jettySize=auto;html=1;entryX=0.015;entryY=0.296;entryDx=0;entryDy=0;entryPerimeter=0;fontSize=20;" edge="1" parent="1" source="HijH_lwXH3qpXOdbG3rt-12" target="HijH_lwXH3qpXOdbG3rt-55">
          <mxGeometry relative="1" as="geometry" />
        </mxCell>
        <mxCell id="HijH_lwXH3qpXOdbG3rt-72" style="edgeStyle=none;rounded=0;orthogonalLoop=1;jettySize=auto;html=1;entryX=0.037;entryY=0.322;entryDx=0;entryDy=0;entryPerimeter=0;fontSize=20;" edge="1" parent="1" source="HijH_lwXH3qpXOdbG3rt-12" target="HijH_lwXH3qpXOdbG3rt-56">
          <mxGeometry relative="1" as="geometry" />
        </mxCell>
        <mxCell id="HijH_lwXH3qpXOdbG3rt-12" value="" style="ellipse;whiteSpace=wrap;html=1;aspect=fixed;fontSize=20;fillColor=#e1d5e7;strokeColor=#9673a6;" vertex="1" parent="1">
          <mxGeometry x="500" y="214" width="45" height="45" as="geometry" />
        </mxCell>
        <mxCell id="HijH_lwXH3qpXOdbG3rt-73" style="edgeStyle=none;rounded=0;orthogonalLoop=1;jettySize=auto;html=1;entryX=0;entryY=0.5;entryDx=0;entryDy=0;fontSize=20;" edge="1" parent="1" source="HijH_lwXH3qpXOdbG3rt-13" target="HijH_lwXH3qpXOdbG3rt-50">
          <mxGeometry relative="1" as="geometry" />
        </mxCell>
        <mxCell id="HijH_lwXH3qpXOdbG3rt-75" style="edgeStyle=none;rounded=0;orthogonalLoop=1;jettySize=auto;html=1;entryX=0;entryY=0.5;entryDx=0;entryDy=0;fontSize=20;" edge="1" parent="1" source="HijH_lwXH3qpXOdbG3rt-13" target="HijH_lwXH3qpXOdbG3rt-51">
          <mxGeometry relative="1" as="geometry" />
        </mxCell>
        <mxCell id="HijH_lwXH3qpXOdbG3rt-76" style="edgeStyle=none;rounded=0;orthogonalLoop=1;jettySize=auto;html=1;entryX=0;entryY=0.5;entryDx=0;entryDy=0;fontSize=20;" edge="1" parent="1" source="HijH_lwXH3qpXOdbG3rt-13" target="HijH_lwXH3qpXOdbG3rt-52">
          <mxGeometry relative="1" as="geometry" />
        </mxCell>
        <mxCell id="HijH_lwXH3qpXOdbG3rt-77" style="edgeStyle=none;rounded=0;orthogonalLoop=1;jettySize=auto;html=1;entryX=0;entryY=0.5;entryDx=0;entryDy=0;fontSize=20;" edge="1" parent="1" source="HijH_lwXH3qpXOdbG3rt-13" target="HijH_lwXH3qpXOdbG3rt-53">
          <mxGeometry relative="1" as="geometry" />
        </mxCell>
        <mxCell id="HijH_lwXH3qpXOdbG3rt-78" style="edgeStyle=none;rounded=0;orthogonalLoop=1;jettySize=auto;html=1;entryX=0;entryY=0.5;entryDx=0;entryDy=0;fontSize=20;" edge="1" parent="1" source="HijH_lwXH3qpXOdbG3rt-13" target="HijH_lwXH3qpXOdbG3rt-54">
          <mxGeometry relative="1" as="geometry" />
        </mxCell>
        <mxCell id="HijH_lwXH3qpXOdbG3rt-80" style="edgeStyle=none;rounded=0;orthogonalLoop=1;jettySize=auto;html=1;entryX=0;entryY=0.304;entryDx=0;entryDy=0;entryPerimeter=0;fontSize=20;" edge="1" parent="1" source="HijH_lwXH3qpXOdbG3rt-13" target="HijH_lwXH3qpXOdbG3rt-56">
          <mxGeometry relative="1" as="geometry" />
        </mxCell>
        <mxCell id="HijH_lwXH3qpXOdbG3rt-13" value="" style="ellipse;whiteSpace=wrap;html=1;aspect=fixed;fontSize=20;fillColor=#e1d5e7;strokeColor=#9673a6;" vertex="1" parent="1">
          <mxGeometry x="500" y="277" width="45" height="45" as="geometry" />
        </mxCell>
        <mxCell id="HijH_lwXH3qpXOdbG3rt-82" style="edgeStyle=none;rounded=0;orthogonalLoop=1;jettySize=auto;html=1;entryX=0;entryY=0.5;entryDx=0;entryDy=0;fontSize=20;" edge="1" parent="1" source="HijH_lwXH3qpXOdbG3rt-14" target="HijH_lwXH3qpXOdbG3rt-51">
          <mxGeometry relative="1" as="geometry" />
        </mxCell>
        <mxCell id="HijH_lwXH3qpXOdbG3rt-83" style="edgeStyle=none;rounded=0;orthogonalLoop=1;jettySize=auto;html=1;entryX=0;entryY=0.5;entryDx=0;entryDy=0;fontSize=20;" edge="1" parent="1" source="HijH_lwXH3qpXOdbG3rt-14" target="HijH_lwXH3qpXOdbG3rt-52">
          <mxGeometry relative="1" as="geometry" />
        </mxCell>
        <mxCell id="HijH_lwXH3qpXOdbG3rt-84" style="edgeStyle=none;rounded=0;orthogonalLoop=1;jettySize=auto;html=1;entryX=0;entryY=0.5;entryDx=0;entryDy=0;fontSize=20;" edge="1" parent="1" source="HijH_lwXH3qpXOdbG3rt-14" target="HijH_lwXH3qpXOdbG3rt-50">
          <mxGeometry relative="1" as="geometry" />
        </mxCell>
        <mxCell id="HijH_lwXH3qpXOdbG3rt-85" style="edgeStyle=none;rounded=0;orthogonalLoop=1;jettySize=auto;html=1;entryX=0;entryY=0.5;entryDx=0;entryDy=0;fontSize=20;" edge="1" parent="1" source="HijH_lwXH3qpXOdbG3rt-14" target="HijH_lwXH3qpXOdbG3rt-54">
          <mxGeometry relative="1" as="geometry" />
        </mxCell>
        <mxCell id="HijH_lwXH3qpXOdbG3rt-86" style="edgeStyle=none;rounded=0;orthogonalLoop=1;jettySize=auto;html=1;entryX=0;entryY=0.5;entryDx=0;entryDy=0;fontSize=20;" edge="1" parent="1" source="HijH_lwXH3qpXOdbG3rt-14" target="HijH_lwXH3qpXOdbG3rt-53">
          <mxGeometry relative="1" as="geometry" />
        </mxCell>
        <mxCell id="HijH_lwXH3qpXOdbG3rt-87" style="edgeStyle=none;rounded=0;orthogonalLoop=1;jettySize=auto;html=1;entryX=0.03;entryY=0.3;entryDx=0;entryDy=0;entryPerimeter=0;fontSize=20;" edge="1" parent="1" source="HijH_lwXH3qpXOdbG3rt-14" target="HijH_lwXH3qpXOdbG3rt-56">
          <mxGeometry relative="1" as="geometry" />
        </mxCell>
        <mxCell id="HijH_lwXH3qpXOdbG3rt-14" value="" style="ellipse;whiteSpace=wrap;html=1;aspect=fixed;fontSize=20;fillColor=#e1d5e7;strokeColor=#9673a6;" vertex="1" parent="1">
          <mxGeometry x="500" y="342" width="45" height="45" as="geometry" />
        </mxCell>
        <mxCell id="HijH_lwXH3qpXOdbG3rt-88" style="edgeStyle=none;rounded=0;orthogonalLoop=1;jettySize=auto;html=1;entryX=-0.048;entryY=0.726;entryDx=0;entryDy=0;entryPerimeter=0;fontSize=20;" edge="1" parent="1" source="HijH_lwXH3qpXOdbG3rt-15" target="HijH_lwXH3qpXOdbG3rt-50">
          <mxGeometry relative="1" as="geometry" />
        </mxCell>
        <mxCell id="HijH_lwXH3qpXOdbG3rt-89" style="edgeStyle=none;rounded=0;orthogonalLoop=1;jettySize=auto;html=1;entryX=0;entryY=0.5;entryDx=0;entryDy=0;fontSize=20;" edge="1" parent="1" source="HijH_lwXH3qpXOdbG3rt-15" target="HijH_lwXH3qpXOdbG3rt-51">
          <mxGeometry relative="1" as="geometry" />
        </mxCell>
        <mxCell id="HijH_lwXH3qpXOdbG3rt-90" style="edgeStyle=none;rounded=0;orthogonalLoop=1;jettySize=auto;html=1;entryX=0;entryY=0.5;entryDx=0;entryDy=0;fontSize=20;" edge="1" parent="1" source="HijH_lwXH3qpXOdbG3rt-15" target="HijH_lwXH3qpXOdbG3rt-52">
          <mxGeometry relative="1" as="geometry" />
        </mxCell>
        <mxCell id="HijH_lwXH3qpXOdbG3rt-91" style="edgeStyle=none;rounded=0;orthogonalLoop=1;jettySize=auto;html=1;entryX=0;entryY=0.5;entryDx=0;entryDy=0;fontSize=20;" edge="1" parent="1" source="HijH_lwXH3qpXOdbG3rt-15" target="HijH_lwXH3qpXOdbG3rt-53">
          <mxGeometry relative="1" as="geometry" />
        </mxCell>
        <mxCell id="HijH_lwXH3qpXOdbG3rt-92" style="edgeStyle=none;rounded=0;orthogonalLoop=1;jettySize=auto;html=1;entryX=0.063;entryY=0.367;entryDx=0;entryDy=0;entryPerimeter=0;fontSize=20;" edge="1" parent="1" source="HijH_lwXH3qpXOdbG3rt-15" target="HijH_lwXH3qpXOdbG3rt-54">
          <mxGeometry relative="1" as="geometry" />
        </mxCell>
        <mxCell id="HijH_lwXH3qpXOdbG3rt-93" style="edgeStyle=none;rounded=0;orthogonalLoop=1;jettySize=auto;html=1;entryX=0;entryY=0;entryDx=0;entryDy=0;fontSize=20;" edge="1" parent="1" source="HijH_lwXH3qpXOdbG3rt-15" target="HijH_lwXH3qpXOdbG3rt-55">
          <mxGeometry relative="1" as="geometry" />
        </mxCell>
        <mxCell id="HijH_lwXH3qpXOdbG3rt-94" style="edgeStyle=none;rounded=0;orthogonalLoop=1;jettySize=auto;html=1;fontSize=20;" edge="1" parent="1" source="HijH_lwXH3qpXOdbG3rt-15" target="HijH_lwXH3qpXOdbG3rt-56">
          <mxGeometry relative="1" as="geometry" />
        </mxCell>
        <mxCell id="HijH_lwXH3qpXOdbG3rt-95" style="edgeStyle=none;rounded=0;orthogonalLoop=1;jettySize=auto;html=1;entryX=-0.011;entryY=0.633;entryDx=0;entryDy=0;entryPerimeter=0;fontSize=20;" edge="1" parent="1" source="HijH_lwXH3qpXOdbG3rt-16" target="HijH_lwXH3qpXOdbG3rt-50">
          <mxGeometry relative="1" as="geometry" />
        </mxCell>
        <mxCell id="HijH_lwXH3qpXOdbG3rt-15" value="" style="ellipse;whiteSpace=wrap;html=1;aspect=fixed;fontSize=20;fillColor=#e1d5e7;strokeColor=#9673a6;" vertex="1" parent="1">
          <mxGeometry x="500" y="409" width="45" height="45" as="geometry" />
        </mxCell>
        <mxCell id="HijH_lwXH3qpXOdbG3rt-97" style="edgeStyle=none;rounded=0;orthogonalLoop=1;jettySize=auto;html=1;entryX=0;entryY=0.5;entryDx=0;entryDy=0;fontSize=20;" edge="1" parent="1" source="HijH_lwXH3qpXOdbG3rt-16" target="HijH_lwXH3qpXOdbG3rt-52">
          <mxGeometry relative="1" as="geometry" />
        </mxCell>
        <mxCell id="HijH_lwXH3qpXOdbG3rt-98" style="edgeStyle=none;rounded=0;orthogonalLoop=1;jettySize=auto;html=1;entryX=0;entryY=0.5;entryDx=0;entryDy=0;fontSize=20;" edge="1" parent="1" source="HijH_lwXH3qpXOdbG3rt-16" target="HijH_lwXH3qpXOdbG3rt-54">
          <mxGeometry relative="1" as="geometry" />
        </mxCell>
        <mxCell id="HijH_lwXH3qpXOdbG3rt-99" style="edgeStyle=none;rounded=0;orthogonalLoop=1;jettySize=auto;html=1;entryX=0;entryY=0.5;entryDx=0;entryDy=0;fontSize=20;" edge="1" parent="1" source="HijH_lwXH3qpXOdbG3rt-16" target="HijH_lwXH3qpXOdbG3rt-53">
          <mxGeometry relative="1" as="geometry" />
        </mxCell>
        <mxCell id="HijH_lwXH3qpXOdbG3rt-100" style="edgeStyle=none;rounded=0;orthogonalLoop=1;jettySize=auto;html=1;entryX=0;entryY=0.5;entryDx=0;entryDy=0;fontSize=20;" edge="1" parent="1" source="HijH_lwXH3qpXOdbG3rt-16" target="HijH_lwXH3qpXOdbG3rt-56">
          <mxGeometry relative="1" as="geometry" />
        </mxCell>
        <mxCell id="HijH_lwXH3qpXOdbG3rt-101" style="edgeStyle=none;rounded=0;orthogonalLoop=1;jettySize=auto;html=1;entryX=0;entryY=0.5;entryDx=0;entryDy=0;fontSize=20;" edge="1" parent="1" source="HijH_lwXH3qpXOdbG3rt-16" target="HijH_lwXH3qpXOdbG3rt-55">
          <mxGeometry relative="1" as="geometry" />
        </mxCell>
        <mxCell id="HijH_lwXH3qpXOdbG3rt-16" value="" style="ellipse;whiteSpace=wrap;html=1;aspect=fixed;fontSize=20;fillColor=#e1d5e7;strokeColor=#9673a6;" vertex="1" parent="1">
          <mxGeometry x="500" y="474" width="45" height="45" as="geometry" />
        </mxCell>
        <mxCell id="HijH_lwXH3qpXOdbG3rt-104" style="edgeStyle=none;rounded=0;orthogonalLoop=1;jettySize=auto;html=1;fontSize=15;" edge="1" parent="1" source="HijH_lwXH3qpXOdbG3rt-50" target="HijH_lwXH3qpXOdbG3rt-102">
          <mxGeometry relative="1" as="geometry" />
        </mxCell>
        <mxCell id="HijH_lwXH3qpXOdbG3rt-105" style="edgeStyle=none;rounded=0;orthogonalLoop=1;jettySize=auto;html=1;entryX=0.032;entryY=0.375;entryDx=0;entryDy=0;entryPerimeter=0;fontSize=15;" edge="1" parent="1" source="HijH_lwXH3qpXOdbG3rt-50" target="HijH_lwXH3qpXOdbG3rt-103">
          <mxGeometry relative="1" as="geometry" />
        </mxCell>
        <mxCell id="HijH_lwXH3qpXOdbG3rt-50" value="" style="ellipse;whiteSpace=wrap;html=1;aspect=fixed;fontSize=20;fillColor=#dae8fc;strokeColor=#6c8ebf;" vertex="1" parent="1">
          <mxGeometry x="634" y="123" width="45" height="45" as="geometry" />
        </mxCell>
        <mxCell id="HijH_lwXH3qpXOdbG3rt-106" style="edgeStyle=none;rounded=0;orthogonalLoop=1;jettySize=auto;html=1;entryX=0;entryY=0;entryDx=0;entryDy=0;fontSize=15;" edge="1" parent="1" source="HijH_lwXH3qpXOdbG3rt-51" target="HijH_lwXH3qpXOdbG3rt-102">
          <mxGeometry relative="1" as="geometry" />
        </mxCell>
        <mxCell id="HijH_lwXH3qpXOdbG3rt-108" style="edgeStyle=none;rounded=0;orthogonalLoop=1;jettySize=auto;html=1;entryX=0.032;entryY=0.359;entryDx=0;entryDy=0;entryPerimeter=0;fontSize=15;" edge="1" parent="1" source="HijH_lwXH3qpXOdbG3rt-51" target="HijH_lwXH3qpXOdbG3rt-103">
          <mxGeometry relative="1" as="geometry" />
        </mxCell>
        <mxCell id="HijH_lwXH3qpXOdbG3rt-51" value="" style="ellipse;whiteSpace=wrap;html=1;aspect=fixed;fontSize=20;fillColor=#dae8fc;strokeColor=#6c8ebf;" vertex="1" parent="1">
          <mxGeometry x="634" y="190" width="45" height="45" as="geometry" />
        </mxCell>
        <mxCell id="HijH_lwXH3qpXOdbG3rt-107" style="edgeStyle=none;rounded=0;orthogonalLoop=1;jettySize=auto;html=1;entryX=0;entryY=0.295;entryDx=0;entryDy=0;entryPerimeter=0;fontSize=15;" edge="1" parent="1" source="HijH_lwXH3qpXOdbG3rt-52" target="HijH_lwXH3qpXOdbG3rt-103">
          <mxGeometry relative="1" as="geometry" />
        </mxCell>
        <mxCell id="HijH_lwXH3qpXOdbG3rt-109" style="edgeStyle=none;rounded=0;orthogonalLoop=1;jettySize=auto;html=1;entryX=0;entryY=0;entryDx=0;entryDy=0;fontSize=15;" edge="1" parent="1" source="HijH_lwXH3qpXOdbG3rt-52" target="HijH_lwXH3qpXOdbG3rt-102">
          <mxGeometry relative="1" as="geometry" />
        </mxCell>
        <mxCell id="HijH_lwXH3qpXOdbG3rt-52" value="" style="ellipse;whiteSpace=wrap;html=1;aspect=fixed;fontSize=20;fillColor=#dae8fc;strokeColor=#6c8ebf;" vertex="1" parent="1">
          <mxGeometry x="634" y="253" width="45" height="45" as="geometry" />
        </mxCell>
        <mxCell id="HijH_lwXH3qpXOdbG3rt-110" style="edgeStyle=none;rounded=0;orthogonalLoop=1;jettySize=auto;html=1;entryX=0;entryY=0;entryDx=0;entryDy=0;fontSize=15;" edge="1" parent="1" source="HijH_lwXH3qpXOdbG3rt-53" target="HijH_lwXH3qpXOdbG3rt-102">
          <mxGeometry relative="1" as="geometry" />
        </mxCell>
        <mxCell id="HijH_lwXH3qpXOdbG3rt-111" style="edgeStyle=none;rounded=0;orthogonalLoop=1;jettySize=auto;html=1;entryX=0.048;entryY=0.391;entryDx=0;entryDy=0;entryPerimeter=0;fontSize=15;" edge="1" parent="1" source="HijH_lwXH3qpXOdbG3rt-53" target="HijH_lwXH3qpXOdbG3rt-103">
          <mxGeometry relative="1" as="geometry" />
        </mxCell>
        <mxCell id="HijH_lwXH3qpXOdbG3rt-53" value="" style="ellipse;whiteSpace=wrap;html=1;aspect=fixed;fontSize=20;fillColor=#dae8fc;strokeColor=#6c8ebf;" vertex="1" parent="1">
          <mxGeometry x="634" y="318" width="45" height="45" as="geometry" />
        </mxCell>
        <mxCell id="HijH_lwXH3qpXOdbG3rt-112" style="edgeStyle=none;rounded=0;orthogonalLoop=1;jettySize=auto;html=1;entryX=0;entryY=0;entryDx=0;entryDy=0;fontSize=15;" edge="1" parent="1" source="HijH_lwXH3qpXOdbG3rt-54" target="HijH_lwXH3qpXOdbG3rt-102">
          <mxGeometry relative="1" as="geometry" />
        </mxCell>
        <mxCell id="HijH_lwXH3qpXOdbG3rt-113" style="edgeStyle=none;rounded=0;orthogonalLoop=1;jettySize=auto;html=1;fontSize=15;" edge="1" parent="1" source="HijH_lwXH3qpXOdbG3rt-54" target="HijH_lwXH3qpXOdbG3rt-103">
          <mxGeometry relative="1" as="geometry" />
        </mxCell>
        <mxCell id="HijH_lwXH3qpXOdbG3rt-54" value="" style="ellipse;whiteSpace=wrap;html=1;aspect=fixed;fontSize=20;fillColor=#dae8fc;strokeColor=#6c8ebf;" vertex="1" parent="1">
          <mxGeometry x="634" y="385" width="45" height="45" as="geometry" />
        </mxCell>
        <mxCell id="HijH_lwXH3qpXOdbG3rt-114" style="edgeStyle=none;rounded=0;orthogonalLoop=1;jettySize=auto;html=1;entryX=0;entryY=0;entryDx=0;entryDy=0;fontSize=15;" edge="1" parent="1" source="HijH_lwXH3qpXOdbG3rt-55" target="HijH_lwXH3qpXOdbG3rt-102">
          <mxGeometry relative="1" as="geometry" />
        </mxCell>
        <mxCell id="HijH_lwXH3qpXOdbG3rt-115" style="edgeStyle=none;rounded=0;orthogonalLoop=1;jettySize=auto;html=1;entryX=-0.064;entryY=0.359;entryDx=0;entryDy=0;entryPerimeter=0;fontSize=15;" edge="1" parent="1" source="HijH_lwXH3qpXOdbG3rt-55" target="HijH_lwXH3qpXOdbG3rt-103">
          <mxGeometry relative="1" as="geometry" />
        </mxCell>
        <mxCell id="HijH_lwXH3qpXOdbG3rt-55" value="" style="ellipse;whiteSpace=wrap;html=1;aspect=fixed;fontSize=20;fillColor=#dae8fc;strokeColor=#6c8ebf;" vertex="1" parent="1">
          <mxGeometry x="634" y="450" width="45" height="45" as="geometry" />
        </mxCell>
        <mxCell id="HijH_lwXH3qpXOdbG3rt-116" style="edgeStyle=none;rounded=0;orthogonalLoop=1;jettySize=auto;html=1;entryX=0;entryY=0;entryDx=0;entryDy=0;fontSize=15;" edge="1" parent="1" source="HijH_lwXH3qpXOdbG3rt-56" target="HijH_lwXH3qpXOdbG3rt-102">
          <mxGeometry relative="1" as="geometry" />
        </mxCell>
        <mxCell id="HijH_lwXH3qpXOdbG3rt-117" style="edgeStyle=none;rounded=0;orthogonalLoop=1;jettySize=auto;html=1;entryX=0.032;entryY=0.375;entryDx=0;entryDy=0;entryPerimeter=0;fontSize=15;" edge="1" parent="1" source="HijH_lwXH3qpXOdbG3rt-56" target="HijH_lwXH3qpXOdbG3rt-103">
          <mxGeometry relative="1" as="geometry" />
        </mxCell>
        <mxCell id="HijH_lwXH3qpXOdbG3rt-56" value="" style="ellipse;whiteSpace=wrap;html=1;aspect=fixed;fontSize=20;fillColor=#dae8fc;strokeColor=#6c8ebf;" vertex="1" parent="1">
          <mxGeometry x="633" y="508" width="45" height="45" as="geometry" />
        </mxCell>
        <mxCell id="HijH_lwXH3qpXOdbG3rt-102" value="&lt;font style=&quot;font-size: 15px&quot;&gt;分类一&lt;/font&gt;" style="ellipse;whiteSpace=wrap;html=1;aspect=fixed;fontSize=20;fillColor=#d5e8d4;strokeColor=#82b366;" vertex="1" parent="1">
          <mxGeometry x="790" y="225" width="53" height="53" as="geometry" />
        </mxCell>
        <mxCell id="HijH_lwXH3qpXOdbG3rt-103" value="&lt;font style=&quot;font-size: 15px&quot;&gt;分类二&lt;/font&gt;" style="ellipse;whiteSpace=wrap;html=1;aspect=fixed;fontSize=20;fillColor=#d5e8d4;strokeColor=#82b366;" vertex="1" parent="1">
          <mxGeometry x="795" y="387" width="52" height="52" as="geometry" />
        </mxCell>
        <mxCell id="HijH_lwXH3qpXOdbG3rt-119" value="" style="shape=flexArrow;endArrow=classic;html=1;rounded=0;fontSize=15;" edge="1" parent="1">
          <mxGeometry width="50" height="50" relative="1" as="geometry">
            <mxPoint x="278" y="335" as="sourcePoint" />
            <mxPoint x="345" y="335" as="targetPoint" />
          </mxGeometry>
        </mxCell>
        <mxCell id="HijH_lwXH3qpXOdbG3rt-121" value="latent features" style="rounded=0;whiteSpace=wrap;html=1;fontSize=20;fillColor=#f8cecc;strokeColor=#b85450;" vertex="1" parent="1">
          <mxGeometry x="766" y="592" width="147" height="43" as="geometry" />
        </mxCell>
      </root>
    </mxGraphModel>
  </diagram>
</mxfile>
